<?xml version="1.0" encoding="UTF-8" standalone="no"?>
<!DOCTYPE svg PUBLIC "-//W3C//DTD SVG 1.1//EN"
 "http://www.w3.org/Graphics/SVG/1.1/DTD/svg11.dtd">
<!-- Generated by graphviz version 16.1.0 (0)
 -->
<!-- Title: arch Pages: 1 -->
<svg width="705pt" height="739pt"
 viewBox="0.00 0.00 705.00 739.00" xmlns="http://www.w3.org/2000/svg" xmlns:xlink="http://www.w3.org/1999/xlink">
<g id="graph0" class="graph" transform="scale(1 1) rotate(0) translate(14.4 724.65)">
<title>arch</title>
<polygon fill="white" stroke="none" points="-14.4,14.4 -14.4,-724.65 690.14,-724.65 690.14,14.4 -14.4,14.4"/>
<g id="clust1" class="cluster">
<title>cluster_node</title>
<path fill="white" stroke="#1a1a1a" d="M166.36,-8C166.36,-8 644.36,-8 644.36,-8 650.36,-8 656.36,-14 656.36,-20 656.36,-20 656.36,-604.56 656.36,-604.56 656.36,-610.56 650.36,-616.56 644.36,-616.56 644.36,-616.56 166.36,-616.56 166.36,-616.56 160.36,-616.56 154.36,-610.56 154.36,-604.56 154.36,-604.56 154.36,-20 154.36,-20 154.36,-14 160.36,-8 166.36,-8"/>
<text xml:space="preserve" text-anchor="middle" x="405.36" y="-602.11" font-family="DejaVu Sans" font-size="11.00">ВМ Ubuntu 24.04 · Kubernetes 1.36.5 (kubeadm, 1 нода) · containerd · Calico</text>
</g>
<g id="clust2" class="cluster">
<title>cluster_edge</title>
<polygon fill="white" stroke="#9a9a9a" stroke-dasharray="5,2" points="234.36,-397.25 234.36,-587.06 412.36,-587.06 412.36,-397.25 234.36,-397.25"/>
<text xml:space="preserve" text-anchor="middle" x="323.36" y="-572.61" font-family="DejaVu Sans" font-size="11.00">envoy&#45;gateway&#45;system</text>
</g>
<g id="clust3" class="cluster">
<title>cluster_demo</title>
<polygon fill="white" stroke="#9a9a9a" stroke-dasharray="5,2" points="162.36,-288.25 162.36,-361.75 385.36,-361.75 385.36,-288.25 162.36,-288.25"/>
<text xml:space="preserve" text-anchor="middle" x="273.86" y="-347.3" font-family="DejaVu Sans" font-size="11.00">demo (PSA restricted, NetworkPolicy)</text>
</g>
<g id="clust4" class="cluster">
<title>cluster_mon</title>
<polygon fill="white" stroke="#9a9a9a" stroke-dasharray="5,2" points="448.36,-404.62 448.36,-586.81 552.36,-586.81 552.36,-404.62 448.36,-404.62"/>
<text xml:space="preserve" text-anchor="middle" x="500.36" y="-572.36" font-family="DejaVu Sans" font-size="11.00">monitoring</text>
</g>
<g id="clust5" class="cluster">
<title>cluster_log</title>
<polygon fill="white" stroke="#9a9a9a" stroke-dasharray="5,2" points="455.36,-16 455.36,-171 557.36,-171 557.36,-16 455.36,-16"/>
<text xml:space="preserve" text-anchor="middle" x="506.36" y="-156.55" font-family="DejaVu Sans" font-size="11.00">logging</text>
</g>
<!-- user -->
<g id="node1" class="node">
<title>user</title>
<ellipse fill="#ffffff" stroke="#1a1a1a" cx="73.36" cy="-539.31" rx="73.36" ry="25.81"/>
<text xml:space="preserve" text-anchor="middle" x="73.36" y="-542.16" font-family="DejaVu Sans" font-size="12.00">Пользователь</text>
<text xml:space="preserve" text-anchor="middle" x="73.36" y="-527.91" font-family="DejaVu Sans" font-size="12.00">curl / браузер</text>
</g>
<!-- envoy -->
<g id="node3" class="node">
<title>envoy</title>
<path fill="#ffffff" stroke="#e02826" stroke-width="2" d="M392.11,-456C392.11,-456 254.61,-456 254.61,-456 248.61,-456 242.61,-450 242.61,-444 242.61,-444 242.61,-417.25 242.61,-417.25 242.61,-411.25 248.61,-405.25 254.61,-405.25 254.61,-405.25 392.11,-405.25 392.11,-405.25 398.11,-405.25 404.11,-411.25 404.11,-417.25 404.11,-417.25 404.11,-444 404.11,-444 404.11,-450 398.11,-456 392.11,-456"/>
<text xml:space="preserve" text-anchor="middle" x="323.36" y="-440.6" font-family="DejaVu Sans" font-size="12.00">Envoy proxy</text>
<text xml:space="preserve" text-anchor="middle" x="323.36" y="-426.35" font-family="DejaVu Sans" font-size="12.00">Gateway &quot;edge&quot;</text>
<text xml:space="preserve" text-anchor="middle" x="323.36" y="-412.1" font-family="DejaVu Sans" font-size="12.00">NodePort 30080 / 30443</text>
</g>
<!-- user&#45;&gt;envoy -->
<g id="edge1" class="edge">
<title>user&#45;&gt;envoy</title>
<path fill="none" stroke="#e02826" stroke-width="1.6" d="M119.22,-518.74C156.61,-502.78 210.06,-479.97 252.89,-461.7"/>
<polygon fill="#e02826" stroke="#e02826" stroke-width="1.6" points="254.05,-465.01 261.87,-457.86 251.3,-458.57 254.05,-465.01"/>
<text xml:space="preserve" text-anchor="middle" x="250.83" y="-481.05" font-family="DejaVu Sans" font-size="11.00" fill="#e02826">HTTP / HTTPS</text>
</g>
<!-- git -->
<g id="node2" class="node">
<title>git</title>
<path fill="#ffffff" stroke="#1a1a1a" d="M675.74,-705.68C675.74,-708.2 643.75,-710.25 604.36,-710.25 564.98,-710.25 532.99,-708.2 532.99,-705.68 532.99,-705.68 532.99,-664.62 532.99,-664.62 532.99,-662.1 564.98,-660.06 604.36,-660.06 643.75,-660.06 675.74,-662.1 675.74,-664.62 675.74,-664.62 675.74,-705.68 675.74,-705.68"/>
<path fill="none" stroke="#1a1a1a" d="M675.74,-705.68C675.74,-703.17 643.75,-701.12 604.36,-701.12 564.98,-701.12 532.99,-703.17 532.99,-705.68"/>
<text xml:space="preserve" text-anchor="middle" x="604.36" y="-688" font-family="DejaVu Sans" font-size="12.00">GitHub</text>
<text xml:space="preserve" text-anchor="middle" x="604.36" y="-673.75" font-family="DejaVu Sans" font-size="12.00">gifi71/mts&#45;hack&#45;2026</text>
</g>
<!-- argo -->
<g id="node11" class="node">
<title>argo</title>
<path fill="#ffffff" stroke="#1a1a1a" d="M635.61,-557.56C635.61,-557.56 573.11,-557.56 573.11,-557.56 567.11,-557.56 561.11,-551.56 561.11,-545.56 561.11,-545.56 561.11,-533.06 561.11,-533.06 561.11,-527.06 567.11,-521.06 573.11,-521.06 573.11,-521.06 635.61,-521.06 635.61,-521.06 641.61,-521.06 647.61,-527.06 647.61,-533.06 647.61,-533.06 647.61,-545.56 647.61,-545.56 647.61,-551.56 641.61,-557.56 635.61,-557.56"/>
<text xml:space="preserve" text-anchor="middle" x="604.36" y="-542.16" font-family="DejaVu Sans" font-size="12.00">Argo CD</text>
<text xml:space="preserve" text-anchor="middle" x="604.36" y="-527.91" font-family="DejaVu Sans" font-size="12.00">app of apps</text>
</g>
<!-- git&#45;&gt;argo -->
<g id="edge16" class="edge">
<title>git&#45;&gt;argo</title>
<path fill="none" stroke="#6b6b6b" d="M604.36,-659.75C604.36,-634.73 604.36,-595.81 604.36,-569.25"/>
<polygon fill="#6b6b6b" stroke="#6b6b6b" points="607.86,-569.52 604.36,-559.52 600.86,-569.52 607.86,-569.52"/>
<text xml:space="preserve" text-anchor="middle" x="617.11" y="-627.61" font-family="DejaVu Sans" font-size="11.00" fill="#3a3a3a">sync</text>
</g>
<!-- v1 -->
<g id="node5" class="node">
<title>v1</title>
<path fill="#ffffff" stroke="#1a1a1a" d="M246.74,-332.25C246.74,-332.25 181.99,-332.25 181.99,-332.25 175.99,-332.25 169.99,-326.25 169.99,-320.25 169.99,-320.25 169.99,-308.25 169.99,-308.25 169.99,-302.25 175.99,-296.25 181.99,-296.25 181.99,-296.25 246.74,-296.25 246.74,-296.25 252.74,-296.25 258.74,-302.25 258.74,-308.25 258.74,-308.25 258.74,-320.25 258.74,-320.25 258.74,-326.25 252.74,-332.25 246.74,-332.25"/>
<text xml:space="preserve" text-anchor="middle" x="214.36" y="-309.98" font-family="DejaVu Sans" font-size="12.00">Angie v1 ×2</text>
</g>
<!-- envoy&#45;&gt;v1 -->
<g id="edge3" class="edge">
<title>envoy&#45;&gt;v1</title>
<path fill="none" stroke="#6b6b6b" d="M252.07,-404.5C242.87,-398.72 234.39,-391.71 227.86,-383.25 219.3,-372.16 215.74,-357.1 214.39,-343.97"/>
<polygon fill="#6b6b6b" stroke="#6b6b6b" points="217.89,-343.91 213.79,-334.14 210.91,-344.33 217.89,-343.91"/>
<text xml:space="preserve" text-anchor="middle" x="272.11" y="-372.8" font-family="DejaVu Sans" font-size="11.00" fill="#3a3a3a">HTTPRoute 90%</text>
</g>
<!-- v2 -->
<g id="node6" class="node">
<title>v2</title>
<path fill="#ffffff" stroke="#1a1a1a" d="M360.74,-332.25C360.74,-332.25 295.99,-332.25 295.99,-332.25 289.99,-332.25 283.99,-326.25 283.99,-320.25 283.99,-320.25 283.99,-308.25 283.99,-308.25 283.99,-302.25 289.99,-296.25 295.99,-296.25 295.99,-296.25 360.74,-296.25 360.74,-296.25 366.74,-296.25 372.74,-302.25 372.74,-308.25 372.74,-308.25 372.74,-320.25 372.74,-320.25 372.74,-326.25 366.74,-332.25 360.74,-332.25"/>
<text xml:space="preserve" text-anchor="middle" x="328.36" y="-309.98" font-family="DejaVu Sans" font-size="12.00">Angie v2 ×1</text>
</g>
<!-- envoy&#45;&gt;v2 -->
<g id="edge4" class="edge">
<title>envoy&#45;&gt;v2</title>
<path fill="none" stroke="#6b6b6b" d="M322.88,-404.6C322.77,-397.68 322.67,-390.17 322.61,-383.25 322.56,-377.25 322.3,-375.74 322.61,-369.75 323.06,-361.23 323.9,-351.98 324.8,-343.57"/>
<polygon fill="#6b6b6b" stroke="#6b6b6b" points="328.25,-344.23 325.91,-333.9 321.3,-343.43 328.25,-344.23"/>
<text xml:space="preserve" text-anchor="middle" x="375.49" y="-372.8" font-family="DejaVu Sans" font-size="11.00" fill="#3a3a3a">10%, X&#45;Canary, /v2</text>
</g>
<!-- grafana -->
<g id="node8" class="node">
<title>grafana</title>
<path fill="#f6f6f6" stroke="#1a1a1a" d="M520.74,-557.31C520.74,-557.31 479.99,-557.31 479.99,-557.31 473.99,-557.31 467.99,-551.31 467.99,-545.31 467.99,-545.31 467.99,-533.31 467.99,-533.31 467.99,-527.31 473.99,-521.31 479.99,-521.31 479.99,-521.31 520.74,-521.31 520.74,-521.31 526.74,-521.31 532.74,-527.31 532.74,-533.31 532.74,-533.31 532.74,-545.31 532.74,-545.31 532.74,-551.31 526.74,-557.31 520.74,-557.31"/>
<text xml:space="preserve" text-anchor="middle" x="500.36" y="-535.03" font-family="DejaVu Sans" font-size="12.00">Grafana</text>
</g>
<!-- envoy&#45;&gt;grafana -->
<g id="edge5" class="edge">
<title>envoy&#45;&gt;grafana</title>
<path fill="none" stroke="#6b6b6b" d="M365.41,-456.97C394.7,-474.62 433.46,-497.98 461.92,-515.14"/>
<polygon fill="#6b6b6b" stroke="#6b6b6b" points="459.86,-517.99 470.23,-520.15 463.48,-511.99 459.86,-517.99"/>
<text xml:space="preserve" text-anchor="middle" x="440.08" y="-481.05" font-family="DejaVu Sans" font-size="11.00" fill="#3a3a3a">HTTPS</text>
</g>
<!-- egc -->
<g id="node4" class="node">
<title>egc</title>
<path fill="#f6f6f6" stroke="#1a1a1a" d="M365.49,-557.56C365.49,-557.56 281.24,-557.56 281.24,-557.56 275.24,-557.56 269.24,-551.56 269.24,-545.56 269.24,-545.56 269.24,-533.06 269.24,-533.06 269.24,-527.06 275.24,-521.06 281.24,-521.06 281.24,-521.06 365.49,-521.06 365.49,-521.06 371.49,-521.06 377.49,-527.06 377.49,-533.06 377.49,-533.06 377.49,-545.56 377.49,-545.56 377.49,-551.56 371.49,-557.56 365.49,-557.56"/>
<text xml:space="preserve" text-anchor="middle" x="323.36" y="-542.16" font-family="DejaVu Sans" font-size="12.00">Envoy Gateway</text>
<text xml:space="preserve" text-anchor="middle" x="323.36" y="-527.91" font-family="DejaVu Sans" font-size="12.00">(контроллер)</text>
</g>
<!-- egc&#45;&gt;envoy -->
<g id="edge2" class="edge">
<title>egc&#45;&gt;envoy</title>
<path fill="none" stroke="#6b6b6b" stroke-dasharray="1,5" d="M323.36,-520.69C323.36,-506.49 323.36,-486.03 323.36,-468.3"/>
<polygon fill="#6b6b6b" stroke="#6b6b6b" points="326.86,-468.37 323.36,-458.37 319.86,-468.37 326.86,-468.37"/>
<text xml:space="preserve" text-anchor="middle" x="334.24" y="-481.05" font-family="DejaVu Sans" font-size="11.00" fill="#3a3a3a">xDS</text>
</g>
<!-- logs -->
<g id="node14" class="node">
<title>logs</title>
<polygon fill="#ffffff" stroke="#1a1a1a" points="386.24,-250.75 264.49,-250.75 264.49,-214.75 392.24,-214.75 392.24,-244.75 386.24,-250.75"/>
<polyline fill="none" stroke="#1a1a1a" points="386.24,-250.75 386.24,-244.75"/>
<polyline fill="none" stroke="#1a1a1a" points="392.24,-244.75 386.24,-244.75"/>
<text xml:space="preserve" text-anchor="middle" x="328.36" y="-228.47" font-family="DejaVu Sans" font-size="12.00">/var/log/containers</text>
</g>
<!-- v1&#45;&gt;logs -->
<g id="edge10" class="edge">
<title>v1&#45;&gt;logs</title>
<path fill="none" stroke="#6b6b6b" stroke-dasharray="1,5" d="M239.38,-295.8C255.42,-284.62 276.45,-269.95 294.04,-257.69"/>
<polygon fill="#6b6b6b" stroke="#6b6b6b" points="295.96,-260.61 302.16,-252.02 291.96,-254.87 295.96,-260.61"/>
</g>
<!-- v2&#45;&gt;logs -->
<g id="edge11" class="edge">
<title>v2&#45;&gt;logs</title>
<path fill="none" stroke="#6b6b6b" stroke-dasharray="1,5" d="M328.36,-296C328.36,-286.27 328.36,-273.87 328.36,-262.7"/>
<polygon fill="#6b6b6b" stroke="#6b6b6b" points="331.86,-262.75 328.36,-252.75 324.86,-262.75 331.86,-262.75"/>
</g>
<!-- prom -->
<g id="node7" class="node">
<title>prom</title>
<path fill="#f6f6f6" stroke="#1a1a1a" d="M531.99,-448.62C531.99,-448.62 468.74,-448.62 468.74,-448.62 462.74,-448.62 456.74,-442.62 456.74,-436.62 456.74,-436.62 456.74,-424.62 456.74,-424.62 456.74,-418.62 462.74,-412.62 468.74,-412.62 468.74,-412.62 531.99,-412.62 531.99,-412.62 537.99,-412.62 543.99,-418.62 543.99,-424.62 543.99,-424.62 543.99,-436.62 543.99,-436.62 543.99,-442.62 537.99,-448.62 531.99,-448.62"/>
<text xml:space="preserve" text-anchor="middle" x="500.36" y="-426.35" font-family="DejaVu Sans" font-size="12.00">Prometheus</text>
</g>
<!-- prom&#45;&gt;envoy -->
<g id="edge8" class="edge">
<title>prom&#45;&gt;envoy</title>
<path fill="none" stroke="#6b6b6b" stroke-dasharray="5,2" d="M456.38,-430.62C442.99,-430.62 429.59,-430.62 416.2,-430.62"/>
<polygon fill="#6b6b6b" stroke="#6b6b6b" points="416.46,-427.13 406.46,-430.63 416.46,-434.13 416.46,-427.13"/>
</g>
<!-- prom&#45;&gt;v1 -->
<g id="edge6" class="edge">
<title>prom&#45;&gt;v1</title>
<path fill="none" stroke="#6b6b6b" stroke-dasharray="5,2" d="M486.02,-412.18C473.12,-397.91 452.8,-378.68 430.36,-369.75 397.49,-356.66 304.38,-374.45 271.36,-361.75 259.26,-357.09 247.79,-348.81 238.35,-340.52"/>
<polygon fill="#6b6b6b" stroke="#6b6b6b" points="240.78,-337.99 231.08,-333.71 235.99,-343.1 240.78,-337.99"/>
<text xml:space="preserve" text-anchor="middle" x="472.68" y="-372.8" font-family="DejaVu Sans" font-size="11.00" fill="#3a3a3a">scrape</text>
</g>
<!-- prom&#45;&gt;v2 -->
<g id="edge7" class="edge">
<title>prom&#45;&gt;v2</title>
<path fill="none" stroke="#6b6b6b" stroke-dasharray="5,2" d="M505.03,-412.23C507.49,-398.78 508.09,-380.65 497.36,-369.75 487.91,-360.15 388.68,-367.22 376.36,-361.75 365.82,-357.07 356.22,-349.01 348.43,-340.9"/>
<polygon fill="#6b6b6b" stroke="#6b6b6b" points="351.27,-338.83 342,-333.7 346.05,-343.49 351.27,-338.83"/>
</g>
<!-- cp -->
<g id="node13" class="node">
<title>cp</title>
<path fill="#f6f6f6" stroke="#1a1a1a" d="M608.86,-332.5C608.86,-332.5 409.86,-332.5 409.86,-332.5 403.86,-332.5 397.86,-326.5 397.86,-320.5 397.86,-320.5 397.86,-308 397.86,-308 397.86,-302 403.86,-296 409.86,-296 409.86,-296 608.86,-296 608.86,-296 614.86,-296 620.86,-302 620.86,-308 620.86,-308 620.86,-320.5 620.86,-320.5 620.86,-326.5 614.86,-332.5 608.86,-332.5"/>
<text xml:space="preserve" text-anchor="middle" x="509.36" y="-317.1" font-family="DejaVu Sans" font-size="12.00">control plane, kubelet,</text>
<text xml:space="preserve" text-anchor="middle" x="509.36" y="-302.85" font-family="DejaVu Sans" font-size="12.00">node&#45;exporter, kube&#45;state&#45;metrics</text>
</g>
<!-- prom&#45;&gt;cp -->
<g id="edge9" class="edge">
<title>prom&#45;&gt;cp</title>
<path fill="none" stroke="#6b6b6b" stroke-dasharray="5,2" d="M501.9,-412.45C502.66,-403.71 503.59,-392.92 504.36,-383.25 505.39,-370.42 506.44,-356.22 507.32,-344.13"/>
<polygon fill="#6b6b6b" stroke="#6b6b6b" points="510.79,-344.6 508.02,-334.38 503.81,-344.1 510.79,-344.6"/>
</g>
<!-- grafana&#45;&gt;prom -->
<g id="edge14" class="edge">
<title>grafana&#45;&gt;prom</title>
<path fill="none" stroke="#6b6b6b" d="M500.36,-521.17C500.36,-504.78 500.36,-479.76 500.36,-460.33"/>
<polygon fill="#6b6b6b" stroke="#6b6b6b" points="503.86,-460.59 500.36,-450.59 496.86,-460.59 503.86,-460.59"/>
</g>
<!-- loki -->
<g id="node10" class="node">
<title>loki</title>
<path fill="#f6f6f6" stroke="#1a1a1a" d="M529.36,-60C529.36,-60 499.36,-60 499.36,-60 493.36,-60 487.36,-54 487.36,-48 487.36,-48 487.36,-36 487.36,-36 487.36,-30 493.36,-24 499.36,-24 499.36,-24 529.36,-24 529.36,-24 535.36,-24 541.36,-30 541.36,-36 541.36,-36 541.36,-48 541.36,-48 541.36,-54 535.36,-60 529.36,-60"/>
<text xml:space="preserve" text-anchor="middle" x="514.36" y="-37.73" font-family="DejaVu Sans" font-size="12.00">Loki</text>
</g>
<!-- grafana&#45;&gt;loki -->
<g id="edge15" class="edge">
<title>grafana&#45;&gt;loki</title>
<path fill="none" stroke="#6b6b6b" d="M525.3,-520.98C567.24,-491.72 647.36,-435.35 647.36,-431.62 647.36,-431.62 647.36,-431.62 647.36,-122.25 647.36,-77.85 591.98,-57.75 552.69,-49.08"/>
<polygon fill="#6b6b6b" stroke="#6b6b6b" points="553.58,-45.69 543.08,-47.13 552.19,-52.55 553.58,-45.69"/>
</g>
<!-- fluentd -->
<g id="node9" class="node">
<title>fluentd</title>
<path fill="#f6f6f6" stroke="#1a1a1a" d="M537.61,-141.5C537.61,-141.5 475.11,-141.5 475.11,-141.5 469.11,-141.5 463.11,-135.5 463.11,-129.5 463.11,-129.5 463.11,-117 463.11,-117 463.11,-111 469.11,-105 475.11,-105 475.11,-105 537.61,-105 537.61,-105 543.61,-105 549.61,-111 549.61,-117 549.61,-117 549.61,-129.5 549.61,-129.5 549.61,-135.5 543.61,-141.5 537.61,-141.5"/>
<text xml:space="preserve" text-anchor="middle" x="506.36" y="-126.1" font-family="DejaVu Sans" font-size="12.00">Fluentd</text>
<text xml:space="preserve" text-anchor="middle" x="506.36" y="-111.85" font-family="DejaVu Sans" font-size="12.00">DaemonSet</text>
</g>
<!-- fluentd&#45;&gt;loki -->
<g id="edge13" class="edge">
<title>fluentd&#45;&gt;loki</title>
<path fill="none" stroke="#6b6b6b" d="M508.14,-104.66C509.12,-94.95 510.36,-82.65 511.48,-71.59"/>
<polygon fill="#6b6b6b" stroke="#6b6b6b" points="514.95,-72.07 512.47,-61.77 507.98,-71.37 514.95,-72.07"/>
</g>
<!-- kyverno -->
<g id="node12" class="node">
<title>kyverno</title>
<path fill="#ffffff" stroke="#1a1a1a" d="M536.86,-251C536.86,-251 475.86,-251 475.86,-251 469.86,-251 463.86,-245 463.86,-239 463.86,-239 463.86,-226.5 463.86,-226.5 463.86,-220.5 469.86,-214.5 475.86,-214.5 475.86,-214.5 536.86,-214.5 536.86,-214.5 542.86,-214.5 548.86,-220.5 548.86,-226.5 548.86,-226.5 548.86,-239 548.86,-239 548.86,-245 542.86,-251 536.86,-251"/>
<text xml:space="preserve" text-anchor="middle" x="506.36" y="-235.6" font-family="DejaVu Sans" font-size="12.00">Kyverno</text>
<text xml:space="preserve" text-anchor="middle" x="506.36" y="-221.35" font-family="DejaVu Sans" font-size="12.00">(admission)</text>
</g>
<!-- kyverno&#45;&gt;fluentd -->
<g id="edge17" class="edge">
<title>kyverno&#45;&gt;fluentd</title>
<path fill="none" stroke="#e02826" stroke-dasharray="5,2" d="M506.36,-214.48C506.36,-197.96 506.36,-172.75 506.36,-153.17"/>
<polygon fill="#e02826" stroke="#e02826" points="509.86,-153.35 506.36,-143.35 502.86,-153.35 509.86,-153.35"/>
<text xml:space="preserve" text-anchor="middle" x="550.61" y="-182.05" font-family="DejaVu Sans" font-size="11.00" fill="#e02826">подпись cosign</text>
</g>
<!-- logs&#45;&gt;fluentd -->
<g id="edge12" class="edge">
<title>logs&#45;&gt;fluentd</title>
<path fill="none" stroke="#6b6b6b" d="M356.96,-214.48C387.01,-196.33 434.47,-167.67 467.81,-147.53"/>
<polygon fill="#6b6b6b" stroke="#6b6b6b" points="469.2,-150.78 475.95,-142.62 465.58,-144.79 469.2,-150.78"/>
</g>
</g>
</svg>
